<?xml version="1.0" encoding="UTF-8"?>
<svg width="171px" height="38px" viewBox="0 0 171 38" version="1.1" xmlns="http://www.w3.org/2000/svg" xmlns:xlink="http://www.w3.org/1999/xlink">
    <!-- Generator: Sketch 49.1 (51147) - http://www.bohemiancoding.com/sketch -->
    <title>about</title>
    <desc>Created with Sketch.</desc>
    <defs></defs>
    <g id="about" stroke="none" stroke-width="1" fill="none" fill-rule="evenodd">
        <path d="M8.595,0.55 L13.5,0.55 L21.285,37 L16.47,37 L14.805,27.82 L7.38,27.82 L5.625,37 L0.855,37 L8.595,0.55 Z M14.13,24.175 L11.07,7.75 L8.055,24.175 L14.13,24.175 Z M24.975,0.55 L33.345,0.55 C36.6450165,0.55 39.089992,1.29249257 40.68,2.7775 C42.270008,4.26250743 43.065,6.5649844 43.065,9.685 C43.065,14.3350232 41.3250174,16.8999976 37.845,17.38 C40.0050108,17.8900025 41.5799951,18.9024924 42.57,20.4175 C43.5600049,21.9325076 44.055,23.9949869 44.055,26.605 C44.055,29.8750163 43.2825077,32.4249909 41.7375,34.255 C40.1924923,36.0850091 37.8450158,37 34.695,37 L24.975,37 L24.975,0.55 Z M33.075,15.76 C35.1750105,15.76 36.6299959,15.3025046 37.44,14.3875 C38.2500041,13.4724954 38.655,11.9050111 38.655,9.685 C38.655,8.0649919 38.4075025,6.87250382 37.9125,6.1075 C37.4174975,5.34249617 36.675005,4.85500105 35.685,4.645 C34.6949951,4.43499895 33.2250097,4.33 31.275,4.33 L30.06,4.33 L30.06,15.76 L33.075,15.76 Z M33.48,33.355 C34.9800075,33.355 36.1424959,33.1225023 36.9675,32.6575 C37.7925041,32.1924977 38.3699984,31.4800048 38.7,30.52 C39.0300017,29.5599952 39.195,28.2550083 39.195,26.605 C39.195,24.2649883 38.7150048,22.5175058 37.755,21.3625 C36.7949952,20.2074942 35.2350108,19.63 33.075,19.63 L30.06,19.63 L30.06,33.355 L33.48,33.355 Z M50.1975,34.3675 C48.6524923,32.3424899 47.88,29.4100192 47.88,25.57 L47.88,11.755 C47.88,7.9749811 48.6599922,5.11000975 50.22,3.16 C51.7800078,1.20999025 54.3299823,0.235 57.87,0.235 C61.4100177,0.235 63.9524923,1.21749017 65.4975,3.1825 C67.0425077,5.14750982 67.815,8.00498125 67.815,11.755 L67.815,25.615 C67.815,29.3950189 67.0350078,32.3049898 65.475,34.345 C63.9149922,36.3850102 61.3800175,37.405 57.87,37.405 C54.2999821,37.405 51.7425077,36.3925101 50.1975,34.3675 Z M61.695,31.735 C62.3550033,30.6249945 62.685,28.9450113 62.685,26.695 L62.685,10.72 C62.685,8.4999889 62.3550033,6.85750532 61.695,5.7925 C61.0349967,4.72749468 59.7600094,4.195 57.87,4.195 C55.9499904,4.195 54.6600033,4.72749468 54,5.7925 C53.3399967,6.85750532 53.01,8.4999889 53.01,10.72 L53.01,26.695 C53.01,28.9450113 53.3399967,30.6249945 54,31.735 C54.6600033,32.8450055 55.9499904,33.4 57.87,33.4 C59.7600094,33.4 61.0349967,32.8450055 61.695,31.735 Z M76.2525,35.875 C74.8274929,34.8549949 73.8450027,33.4300092 73.305,31.6 C72.7649973,29.7699908 72.495,27.4750138 72.495,24.715 L72.495,0.55 L77.355,0.55 L77.355,24.94 C77.355,27.7000138 77.6774968,29.7999928 78.3225,31.24 C78.9675032,32.6800072 80.2649902,33.4 82.215,33.4 C84.1650097,33.4 85.4624968,32.6800072 86.1075,31.24 C86.7525032,29.7999928 87.075,27.7000138 87.075,24.94 L87.075,0.55 L91.89,0.55 L91.89,24.715 C91.89,27.4750138 91.6200027,29.7699908 91.08,31.6 C90.5399973,33.4300092 89.565007,34.8549949 88.155,35.875 C86.7449929,36.8950051 84.7650127,37.405 82.215,37.405 C79.6649872,37.405 77.6775071,36.8950051 76.2525,35.875 Z M101.25,4.33 L95.085,4.33 L95.085,0.55 L112.32,0.55 L112.32,4.33 L106.335,4.33 L106.335,37 L101.25,37 L101.25,4.33 Z M126.72,0.55 L131.715,0.55 L138.15,30.115 L144.63,0.55 L149.58,0.55 L150.255,37 L146.16,37 L145.755,10.54 L139.59,37 L136.71,37 L130.59,10.54 L130.185,37 L126.045,37 L126.72,0.55 Z M155.835,0.55 L169.965,0.55 L169.965,4.33 L160.92,4.33 L160.92,16.39 L168.255,16.39 L168.255,19.99 L160.92,19.99 L160.92,33.355 L170.055,33.355 L170.055,37 L155.835,37 L155.835,0.55 Z" id="ABOUT-ME" fill="#000000"></path>
    </g>
</svg>