<?xml version="1.0" encoding="UTF-8"?>
<svg width="151px" height="38px" viewBox="0 0 151 38" version="1.1" xmlns="http://www.w3.org/2000/svg" xmlns:xlink="http://www.w3.org/1999/xlink">
    <!-- Generator: Sketch 49.1 (51147) - http://www.bohemiancoding.com/sketch -->
    <title>contact</title>
    <desc>Created with Sketch.</desc>
    <defs></defs>
    <g id="contact" stroke="none" stroke-width="1" fill="none" fill-rule="evenodd">
        <path d="M2.365,34.1875 C0.89499265,32.0424893 0.16,29.0800189 0.16,25.3 L0.16,12.43 C0.16,8.43998005 0.8799928,5.41001035 2.32,3.34 C3.7600072,1.26998965 6.3099817,0.235 9.97,0.235 C13.2400163,0.235 15.5874929,1.11999115 17.0125,2.89 C18.4375071,4.66000885 19.15,7.26998275 19.15,10.72 L19.15,13.6 L14.335,13.6 L14.335,11.035 C14.335,9.3549916 14.2600007,8.0650045 14.11,7.165 C13.9599992,6.2649955 13.5775031,5.5450027 12.9625,5.005 C12.3474969,4.4649973 11.3650067,4.195 10.015,4.195 C8.6349931,4.195 7.60750338,4.48749708 6.9325,5.0725 C6.25749663,5.65750293 5.81500105,6.46749483 5.605,7.5025 C5.39499895,8.53750517 5.29,9.9249913 5.29,11.665 L5.29,26.11 C5.29,27.9700093 5.4399985,29.4249947 5.74,30.475 C6.0400015,31.5250052 6.52749663,32.2749978 7.2025,32.725 C7.87750337,33.1750022 8.814994,33.4 10.015,33.4 C11.3050064,33.4 12.2649968,33.1150028 12.895,32.545 C13.5250031,31.9749972 13.9224992,31.1950049 14.0875,30.205 C14.2525008,29.214995 14.335,27.8650085 14.335,26.155 L14.335,23.455 L19.15,23.455 L19.15,26.155 C19.15,29.7850181 18.4675068,32.5674903 17.1025,34.5025 C15.7374932,36.4375097 13.3600169,37.405 9.97,37.405 C6.369982,37.405 3.83500735,36.3325107 2.365,34.1875 Z M25.6525,34.3675 C24.1074923,32.3424899 23.335,29.4100192 23.335,25.57 L23.335,11.755 C23.335,7.9749811 24.1149922,5.11000975 25.675,3.16 C27.2350078,1.20999025 29.7849823,0.235 33.325,0.235 C36.8650177,0.235 39.4074923,1.21749017 40.9525,3.1825 C42.4975077,5.14750982 43.27,8.00498125 43.27,11.755 L43.27,25.615 C43.27,29.3950189 42.4900078,32.3049898 40.93,34.345 C39.3699922,36.3850102 36.8350176,37.405 33.325,37.405 C29.7549821,37.405 27.1975077,36.3925101 25.6525,34.3675 Z M37.15,31.735 C37.8100033,30.6249945 38.14,28.9450113 38.14,26.695 L38.14,10.72 C38.14,8.4999889 37.8100033,6.85750532 37.15,5.7925 C36.4899967,4.72749468 35.2150094,4.195 33.325,4.195 C31.4049904,4.195 30.1150033,4.72749468 29.455,5.7925 C28.7949967,6.85750532 28.465,8.4999889 28.465,10.72 L28.465,26.695 C28.465,28.9450113 28.7949967,30.6249945 29.455,31.735 C30.1150033,32.8450055 31.4049904,33.4 33.325,33.4 C35.2150094,33.4 36.4899967,32.8450055 37.15,31.735 Z M48.265,0.55 L51.73,0.55 L62.08,24.76 L62.08,0.55 L66.31,0.55 L66.31,37 L63.07,37 L52.585,12.115 L52.585,37 L48.265,37 L48.265,0.55 Z M76.03,4.33 L69.865,4.33 L69.865,0.55 L87.1,0.55 L87.1,4.33 L81.115,4.33 L81.115,37 L76.03,37 L76.03,4.33 Z M96.37,0.55 L101.275,0.55 L109.06,37 L104.245,37 L102.58,27.82 L95.155,27.82 L93.4,37 L88.63,37 L96.37,0.55 Z M101.905,24.175 L98.845,7.75 L95.83,24.175 L101.905,24.175 Z M114.28,34.1875 C112.809993,32.0424893 112.075,29.0800189 112.075,25.3 L112.075,12.43 C112.075,8.43998005 112.794993,5.41001035 114.235,3.34 C115.675007,1.26998965 118.224982,0.235 121.885,0.235 C125.155016,0.235 127.502493,1.11999115 128.9275,2.89 C130.352507,4.66000885 131.065,7.26998275 131.065,10.72 L131.065,13.6 L126.25,13.6 L126.25,11.035 C126.25,9.3549916 126.175001,8.0650045 126.025,7.165 C125.874999,6.2649955 125.492503,5.5450027 124.8775,5.005 C124.262497,4.4649973 123.280007,4.195 121.93,4.195 C120.549993,4.195 119.522503,4.48749708 118.8475,5.0725 C118.172497,5.65750293 117.730001,6.46749483 117.52,7.5025 C117.309999,8.53750517 117.205,9.9249913 117.205,11.665 L117.205,26.11 C117.205,27.9700093 117.354999,29.4249947 117.655,30.475 C117.955002,31.5250052 118.442497,32.2749978 119.1175,32.725 C119.792503,33.1750022 120.729994,33.4 121.93,33.4 C123.220006,33.4 124.179997,33.1150028 124.81,32.545 C125.440003,31.9749972 125.837499,31.1950049 126.0025,30.205 C126.167501,29.214995 126.25,27.8650085 126.25,26.155 L126.25,23.455 L131.065,23.455 L131.065,26.155 C131.065,29.7850181 130.382507,32.5674903 129.0175,34.5025 C127.652493,36.4375097 125.275017,37.405 121.885,37.405 C118.284982,37.405 115.750007,36.3325107 114.28,34.1875 Z M139.93,4.33 L133.765,4.33 L133.765,0.55 L151,0.55 L151,4.33 L145.015,4.33 L145.015,37 L139.93,37 L139.93,4.33 Z" fill="#000000"></path>
    </g>
</svg>