<?xml version="1.0" encoding="UTF-8"?>
<svg width="110px" height="38px" viewBox="0 0 110 38" version="1.1" xmlns="http://www.w3.org/2000/svg" xmlns:xlink="http://www.w3.org/1999/xlink">
    <!-- Generator: Sketch 49.1 (51147) - http://www.bohemiancoding.com/sketch -->
    <title>skills</title>
    <desc>Created with Sketch.</desc>
    <defs></defs>
    <g id="skills" stroke="none" stroke-width="1" fill="none" fill-rule="evenodd">
        <path d="M3.4325,34.57 C1.82749198,32.6799905 0.9350009,30.0850165 0.755,26.785 L5.255,25.57 C5.40500075,27.9100117 5.86249617,29.7999928 6.6275,31.24 C7.39250383,32.6800072 8.65999115,33.4 10.43,33.4 C11.7500066,33.4 12.7474966,33.0325037 13.4225,32.2975 C14.0975034,31.5624963 14.435,30.5050069 14.435,29.125 C14.435,27.6249925 14.1200031,26.380005 13.49,25.39 C12.8599968,24.3999951 11.8550069,23.305006 10.475,22.105 L4.355,16.705 C3.12499385,15.6249946 2.23250277,14.4625062 1.6775,13.2175 C1.12249723,11.9724938 0.845,10.450009 0.845,8.65 C0.845,5.97998665 1.60999235,3.91000735 3.14,2.44 C4.67000765,0.96999265 6.7549868,0.235 9.395,0.235 C12.2750144,0.235 14.4499926,0.99999235 15.92,2.53 C17.3900073,4.06000765 18.2749985,6.42998395 18.575,9.64 L14.255,10.81 C14.1049992,8.67998935 13.6925034,7.03750577 13.0175,5.8825 C12.3424966,4.72749423 11.1350087,4.15 9.395,4.15 C8.10499355,4.15 7.11500345,4.48749662 6.425,5.1625 C5.73499655,5.83750337 5.39,6.8349934 5.39,8.155 C5.39,9.2350054 5.5699982,10.1424963 5.93,10.8775 C6.2900018,11.6125037 6.90499565,12.3549962 7.775,13.105 L13.94,18.505 C15.5300079,19.915007 16.7974953,21.4449917 17.7425,23.095 C18.6875047,24.7450082 19.16,26.6199895 19.16,28.72 C19.16,31.3900134 18.3500081,33.5049922 16.73,35.065 C15.1099919,36.6250078 13.0100129,37.405 10.43,37.405 C7.3699847,37.405 5.03750802,36.4600095 3.4325,34.57 Z M23.12,0.55 L28.205,0.55 L28.205,17.74 L36.575,0.55 L41.3,0.55 L34.1,16.615 L42.47,37 L37.52,37 L30.545,19.9 L28.205,24.13 L28.205,37 L23.12,37 L23.12,0.55 Z M45.665,0.55 L50.66,0.55 L50.66,37 L45.665,37 L45.665,0.55 Z M56.555,0.55 L61.64,0.55 L61.64,33.355 L70.955,33.355 L70.955,37 L56.555,37 L56.555,0.55 Z M74.42,0.55 L79.505,0.55 L79.505,33.355 L88.82,33.355 L88.82,37 L74.42,37 L74.42,0.55 Z M93.8825,34.57 C92.277492,32.6799905 91.3850009,30.0850165 91.205,26.785 L95.705,25.57 C95.8550008,27.9100117 96.3124962,29.7999928 97.0775,31.24 C97.8425038,32.6800072 99.1099911,33.4 100.88,33.4 C102.200007,33.4 103.197497,33.0325037 103.8725,32.2975 C104.547503,31.5624963 104.885,30.5050069 104.885,29.125 C104.885,27.6249925 104.570003,26.380005 103.94,25.39 C103.309997,24.3999951 102.305007,23.305006 100.925,22.105 L94.805,16.705 C93.5749939,15.6249946 92.6825028,14.4625062 92.1275,13.2175 C91.5724972,11.9724938 91.295,10.450009 91.295,8.65 C91.295,5.97998665 92.0599924,3.91000735 93.59,2.44 C95.1200077,0.96999265 97.2049868,0.235 99.845,0.235 C102.725014,0.235 104.899993,0.99999235 106.37,2.53 C107.840007,4.06000765 108.724998,6.42998395 109.025,9.64 L104.705,10.81 C104.554999,8.67998935 104.142503,7.03750577 103.4675,5.8825 C102.792497,4.72749423 101.585009,4.15 99.845,4.15 C98.5549936,4.15 97.5650035,4.48749662 96.875,5.1625 C96.1849966,5.83750337 95.84,6.8349934 95.84,8.155 C95.84,9.2350054 96.0199982,10.1424963 96.38,10.8775 C96.7400018,11.6125037 97.3549957,12.3549962 98.225,13.105 L104.39,18.505 C105.980008,19.915007 107.247495,21.4449917 108.1925,23.095 C109.137505,24.7450082 109.61,26.6199895 109.61,28.72 C109.61,31.3900134 108.800008,33.5049922 107.18,35.065 C105.559992,36.6250078 103.460013,37.405 100.88,37.405 C97.8199847,37.405 95.487508,36.4600095 93.8825,34.57 Z" id="SKILLS" fill="#000000"></path>
    </g>
</svg>