<?xml version="1.0" encoding="UTF-8"?>
<svg width="237px" height="38px" viewBox="0 0 237 38" version="1.1" xmlns="http://www.w3.org/2000/svg" xmlns:xlink="http://www.w3.org/1999/xlink">
    <!-- Generator: Sketch 49.1 (51147) - http://www.bohemiancoding.com/sketch -->
    <title>work</title>
    <desc>Created with Sketch.</desc>
    <defs></defs>
    <g id="work" stroke="none" stroke-width="1" fill="none" fill-rule="evenodd">
        <path d="M0.835,0.55 L8.17,0.55 C11.8600185,0.55 14.5674914,1.30749242 16.2925,2.8225 C18.0175086,4.33750757 18.88,6.8049829 18.88,10.225 C18.88,14.9050234 17.380015,17.7399951 14.38,18.73 L19.555,37 L14.65,37 L9.88,19.9 L5.92,19.9 L5.92,37 L0.835,37 L0.835,0.55 Z M7.855,16.255 C10.0450109,16.255 11.6124953,15.8200043 12.5575,14.95 C13.5025047,14.0799957 13.975,12.5050114 13.975,10.225 C13.975,8.7249925 13.8100017,7.54750428 13.48,6.6925 C13.1499984,5.83749572 12.5650042,5.20750202 11.725,4.8025 C10.8849958,4.39749798 9.70000765,4.195 8.17,4.195 L5.92,4.195 L5.92,16.255 L7.855,16.255 Z M24.19,0.55 L38.32,0.55 L38.32,4.33 L29.275,4.33 L29.275,16.39 L36.61,16.39 L36.61,19.99 L29.275,19.99 L29.275,33.355 L38.41,33.355 L38.41,37 L24.19,37 L24.19,0.55 Z M44.035,34.1875 C42.5649926,32.0424893 41.83,29.0800189 41.83,25.3 L41.83,12.43 C41.83,8.43998005 42.5499928,5.41001035 43.99,3.34 C45.4300072,1.26998965 47.9799817,0.235 51.64,0.235 C54.9100163,0.235 57.2574929,1.11999115 58.6825,2.89 C60.1075071,4.66000885 60.82,7.26998275 60.82,10.72 L60.82,13.6 L56.005,13.6 L56.005,11.035 C56.005,9.3549916 55.9300007,8.0650045 55.78,7.165 C55.6299992,6.2649955 55.2475031,5.5450027 54.6325,5.005 C54.0174969,4.4649973 53.0350067,4.195 51.685,4.195 C50.3049931,4.195 49.2775034,4.48749708 48.6025,5.0725 C47.9274966,5.65750293 47.485001,6.46749483 47.275,7.5025 C47.0649989,8.53750517 46.96,9.9249913 46.96,11.665 L46.96,26.11 C46.96,27.9700093 47.1099985,29.4249947 47.41,30.475 C47.7100015,31.5250052 48.1974966,32.2749978 48.8725,32.725 C49.5475034,33.1750022 50.484994,33.4 51.685,33.4 C52.9750065,33.4 53.9349968,33.1150028 54.565,32.545 C55.1950031,31.9749972 55.5924992,31.1950049 55.7575,30.205 C55.9225008,29.214995 56.005,27.8650085 56.005,26.155 L56.005,23.455 L60.82,23.455 L60.82,26.155 C60.82,29.7850181 60.1375068,32.5674903 58.7725,34.5025 C57.4074932,36.4375097 55.0300169,37.405 51.64,37.405 C48.039982,37.405 45.5050073,36.3325107 44.035,34.1875 Z M65.68,0.55 L79.81,0.55 L79.81,4.33 L70.765,4.33 L70.765,16.39 L78.1,16.39 L78.1,19.99 L70.765,19.99 L70.765,33.355 L79.9,33.355 L79.9,37 L65.68,37 L65.68,0.55 Z M83.995,0.55 L87.46,0.55 L97.81,24.76 L97.81,0.55 L102.04,0.55 L102.04,37 L98.8,37 L88.315,12.115 L88.315,37 L83.995,37 L83.995,0.55 Z M111.76,4.33 L105.595,4.33 L105.595,0.55 L122.83,0.55 L122.83,4.33 L116.845,4.33 L116.845,37 L111.76,37 L111.76,4.33 Z M135.43,0.55 L139.66,0.55 L143.575,26.74 L148.48,0.685 L152.08,0.685 L157.03,26.875 L160.855,0.55 L164.995,0.55 L159.145,37 L155.455,37 L150.37,10 L145.24,37 L141.37,37 L135.43,0.55 Z M171.0925,34.3675 C169.547492,32.3424899 168.775,29.4100192 168.775,25.57 L168.775,11.755 C168.775,7.9749811 169.554992,5.11000975 171.115,3.16 C172.675008,1.20999025 175.224982,0.235 178.765,0.235 C182.305018,0.235 184.847492,1.21749017 186.3925,3.1825 C187.937508,5.14750982 188.71,8.00498125 188.71,11.755 L188.71,25.615 C188.71,29.3950189 187.930008,32.3049898 186.37,34.345 C184.809992,36.3850102 182.275018,37.405 178.765,37.405 C175.194982,37.405 172.637508,36.3925101 171.0925,34.3675 Z M182.59,31.735 C183.250003,30.6249945 183.58,28.9450113 183.58,26.695 L183.58,10.72 C183.58,8.4999889 183.250003,6.85750532 182.59,5.7925 C181.929997,4.72749468 180.655009,4.195 178.765,4.195 C176.84499,4.195 175.555003,4.72749468 174.895,5.7925 C174.234997,6.85750532 173.905,8.4999889 173.905,10.72 L173.905,26.695 C173.905,28.9450113 174.234997,30.6249945 174.895,31.735 C175.555003,32.8450055 176.84499,33.4 178.765,33.4 C180.655009,33.4 181.929997,32.8450055 182.59,31.735 Z M193.705,0.55 L201.04,0.55 C204.730018,0.55 207.437491,1.30749242 209.1625,2.8225 C210.887509,4.33750757 211.75,6.8049829 211.75,10.225 C211.75,14.9050234 210.250015,17.7399951 207.25,18.73 L212.425,37 L207.52,37 L202.75,19.9 L198.79,19.9 L198.79,37 L193.705,37 L193.705,0.55 Z M200.725,16.255 C202.915011,16.255 204.482495,15.8200043 205.4275,14.95 C206.372505,14.0799957 206.845,12.5050114 206.845,10.225 C206.845,8.7249925 206.680002,7.54750428 206.35,6.6925 C206.019998,5.83749572 205.435004,5.20750202 204.595,4.8025 C203.754996,4.39749798 202.570008,4.195 201.04,4.195 L198.79,4.195 L198.79,16.255 L200.725,16.255 Z M217.06,0.55 L222.145,0.55 L222.145,17.74 L230.515,0.55 L235.24,0.55 L228.04,16.615 L236.41,37 L231.46,37 L224.485,19.9 L222.145,24.13 L222.145,37 L217.06,37 L217.06,0.55 Z" id="Recent-Work" fill="#000000"></path>
    </g>
</svg>